<?xml version="1.0" encoding="UTF-8" standalone="no"?>
<!-- Created with Inkscape (http://www.inkscape.org/) -->
<svg
   xmlns:dc="http://purl.org/dc/elements/1.1/"
   xmlns:cc="http://creativecommons.org/ns#"
   xmlns:rdf="http://www.w3.org/1999/02/22-rdf-syntax-ns#"
   xmlns:svg="http://www.w3.org/2000/svg"
   xmlns="http://www.w3.org/2000/svg"
   xmlns:xlink="http://www.w3.org/1999/xlink"
   xmlns:sodipodi="http://sodipodi.sourceforge.net/DTD/sodipodi-0.dtd"
   xmlns:inkscape="http://www.inkscape.org/namespaces/inkscape"
   width="465.79434"
   height="411.44424"
   id="svg2"
   sodipodi:version="0.32"
   inkscape:version="0.46"
   version="1.0"
   sodipodi:docbase="C:\Documents and Settings\Sigurd\Mine dokumenter\Mine bilder"
   sodipodi:docname="Flag_of_Europe_waving.svg"
   inkscape:output_extension="org.inkscape.output.svg.inkscape"
   sodipodi:modified="true">
  <defs
     id="defs4">
    <linearGradient
       id="linearGradient3216">
      <stop
         style="stop-color:#74381f;stop-opacity:1;"
         offset="0"
         id="stop3218" />
      <stop
         id="stop3230"
         offset="0.08676991"
         style="stop-color:#a34f26;stop-opacity:1;" />
      <stop
         id="stop3224"
         offset="0.26369572"
         style="stop-color:#c35d1c;stop-opacity:1;" />
      <stop
         style="stop-color:#a04c15;stop-opacity:1;"
         offset="0.36576825"
         id="stop3232" />
      <stop
         style="stop-color:#a24c0e;stop-opacity:1;"
         offset="0.50866985"
         id="stop3226" />
      <stop
         id="stop3228"
         offset="0.63115698"
         style="stop-color:#b36120;stop-opacity:1;" />
      <stop
         style="stop-color:#6d3002;stop-opacity:1;"
         offset="0.86252147"
         id="stop3234" />
      <stop
         style="stop-color:#4b2200;stop-opacity:1;"
         offset="1"
         id="stop3220" />
    </linearGradient>
    <clipPath
       clipPathUnits="userSpaceOnUse"
       id="clipPath22220">
      <path
         sodipodi:nodetypes="cscsscssscssssssssssscssssscsssc"
         id="path22222"
         d="M 88.388348,22.702923 C 88.388348,22.702923 98.486113,36.016634 115.96551,29.773991 C 125.86501,26.238456 162.63456,50.280087 162.63456,50.280087 C 162.63456,50.280087 178.19091,58.058262 199.40411,54.522728 C 220.61731,50.987194 219.2031,54.522728 237.58788,46.037446 C 255.97265,37.552165 264.45794,51.694301 264.45794,51.694301 C 264.45794,51.694301 270.11479,53.815621 277.18586,53.108514 C 284.25693,52.401408 289.91378,60.886689 294.86353,60.886689 C 299.81328,60.886689 309.71277,63.008009 323.85491,55.936941 C 337.99704,48.865874 360.62446,58.765369 360.62446,58.765369 C 360.62446,58.765369 368.72081,61.008418 371.78386,66.213924 C 374.59159,70.985515 374.98186,81.300632 376.88791,84.221213 C 382.25676,92.447733 383.95177,115.33397 412.24325,113.9197 C 414.36193,113.81379 408.70772,139.37554 408.70772,151.39636 C 408.70772,163.41717 401.63665,183.21616 412.24325,191.70144 C 422.84986,200.18672 438.14766,227.69795 441.23463,231.29942 C 449.71991,241.19891 462.33857,312.50751 502.75292,331.70859 C 504.5594,332.56686 478.00418,329.58727 474.46865,323.2233 C 470.93312,316.85934 446.89149,302.71721 419.31432,314.73802 C 391.73716,326.75884 382.54477,320.39488 372.64527,327.46595 C 362.74578,334.53701 354.2605,328.88016 351.43207,326.05173 C 348.60364,323.2233 340.11836,304.83853 340.11836,304.83853 C 340.11836,304.83853 313.95541,318.27356 309.00566,323.93041 C 304.05592,329.58727 286.37825,337.36544 274.35743,328.17305 C 262.33662,318.98066 260.89073,306.11892 239.7092,311.20249 C 222.03153,315.44513 216.36692,307.54557 204.35386,308.37406 C 183.84776,309.78828 166.1701,318.98067 159.80614,324.63752 C 153.44217,330.29438 132.93607,327.46595 132.93607,327.46595 C 132.93607,327.46595 124.45079,271.60451 122.32947,259.58369 C 120.20815,247.56288 116.67262,210.08622 113.13708,200.89383 C 109.60155,191.70145 107.48023,154.22478 103.9447,136.54711 C 100.40916,118.86944 89.095454,35.430845 88.388348,22.702923 z"
         style="opacity:0.12244897;fill:#ff0000;fill-opacity:1;fill-rule:evenodd;stroke:#000000;stroke-width:1px;stroke-linecap:butt;stroke-linejoin:miter;stroke-opacity:1" />
    </clipPath>
    <g
       id="star">
      <g
         id="cone">
        <path
           transform="matrix(0.951057,0.309017,-0.309017,0.951057,0,-1)"
           d="M 0,0 L 0,1 L 0.5,1 L 0,0 z"
           id="triangle" />
        <use
           height="18"
           width="27"
           y="0"
           x="0"
           id="use2165"
           transform="scale(-1,1)"
           xlink:href="#triangle" />
      </g>
      <use
         height="18"
         width="27"
         y="0"
         x="0"
         id="use2167"
         transform="matrix(0.309017,0.951057,-0.951057,0.309017,0,0)"
         xlink:href="#cone" />
      <use
         height="18"
         width="27"
         y="0"
         x="0"
         id="use2169"
         transform="matrix(-0.809017,0.587785,-0.587785,-0.809017,0,0)"
         xlink:href="#cone" />
      <use
         height="18"
         width="27"
         y="0"
         x="0"
         id="use2171"
         transform="matrix(-0.809017,-0.587785,0.587785,-0.809017,0,0)"
         xlink:href="#cone" />
      <use
         height="18"
         width="27"
         y="0"
         x="0"
         id="use2173"
         transform="matrix(0.309017,-0.951057,0.951057,0.309017,0,0)"
         xlink:href="#cone" />
    </g>
    <g
       id="s">
      <g
         id="c">
        <path
           transform="matrix(0.9510565,0.309017,-0.309017,0.9510565,0,-1)"
           d="M 0,0 L 0,1 L 0.5,1 L 0,0 z"
           id="t" />
        <use
           id="use6590"
           transform="scale(-1,1)"
           xlink:href="#t"
           x="0"
           y="0"
           width="427.88696"
           height="424.22333" />
      </g>
      <g
         id="a">
        <use
           id="use6593"
           transform="matrix(0.309017,0.9510565,-0.9510565,0.309017,0,0)"
           xlink:href="#c"
           x="0"
           y="0"
           width="427.88696"
           height="424.22333" />
        <use
           id="use6595"
           transform="matrix(-0.809017,0.5877853,-0.5877853,-0.809017,0,0)"
           xlink:href="#c"
           x="0"
           y="0"
           width="427.88696"
           height="424.22333" />
      </g>
      <use
         id="use6597"
         transform="scale(-1,1)"
         xlink:href="#a"
         x="0"
         y="0"
         width="427.88696"
         height="424.22333" />
    </g>
    <linearGradient
       inkscape:collect="always"
       xlink:href="#linearGradient3216"
       id="linearGradient3222"
       x1="-16.102671"
       y1="357.36816"
       x2="-1.0064163"
       y2="357.36816"
       gradientUnits="userSpaceOnUse"
       gradientTransform="matrix(1,0,0,0.8255976,0,-0.510835)" />
    <linearGradient
       inkscape:collect="always"
       xlink:href="#linearGradient3216"
       id="linearGradient3248"
       gradientUnits="userSpaceOnUse"
       gradientTransform="matrix(0.9875802,-0.1571155,0.1297142,0.8153439,61.85514,8.9777064e-3)"
       x1="-16.102671"
       y1="357.36816"
       x2="-1.0064163"
       y2="357.36816" />
  </defs>
  <sodipodi:namedview
     id="base"
     pagecolor="#ffffff"
     bordercolor="#666666"
     borderopacity="1.0"
     gridtolerance="10000"
     guidetolerance="10"
     objecttolerance="10"
     inkscape:pageopacity="0.0"
     inkscape:pageshadow="2"
     inkscape:zoom="1.0187296"
     inkscape:cx="197.075"
     inkscape:cy="187.37999"
     inkscape:document-units="px"
     inkscape:current-layer="g3308"
     width="500px"
     height="500px"
     inkscape:window-width="1280"
     inkscape:window-height="750"
     inkscape:window-x="-8"
     inkscape:window-y="-8"
     showgrid="false"
     showguides="true"
     inkscape:guide-bbox="true" />
  <metadata
     id="metadata7">
    <rdf:RDF>
      <cc:Work
         rdf:about="">
        <dc:format>image/svg+xml</dc:format>
        <dc:type
           rdf:resource="http://purl.org/dc/dcmitype/StillImage" />
      </cc:Work>
    </rdf:RDF>
  </metadata>
  <g
     inkscape:label="Layer 1"
     inkscape:groupmode="layer"
     id="layer1"
     transform="translate(-44.82024,-16.06575)">
    <g
       id="g21212"
       clip-path="url(#clipPath22220)"
       transform="matrix(0.9900711,0,0,1.0017508,3.7583732,7.8424885)" />
    <g
       id="g3308"
       style="opacity:1">
      <path
         style="opacity:1;fill:url(#linearGradient3248);fill-opacity:1;fill-rule:nonzero;stroke:none;stroke-width:2.41000009;stroke-linecap:round;stroke-linejoin:round;stroke-miterlimit:4;stroke-dasharray:none;stroke-dashoffset:0;stroke-opacity:1"
         d="M 56.641193,21.733821 C 52.526444,22.388443 49.433432,24.362514 49.714104,26.126734 L 124.42139,495.7141 L 139.32769,493.34264 L 64.620393,23.755271 C 64.339723,21.991052 60.755943,21.0792 56.641193,21.733821 z"
         id="rect3214"
         sodipodi:nodetypes="cccccc" />
      <g
         id="g5177"
         transform="matrix(4.6917591,0,0,-6.2474835,457.32965,280.50299)"
         style="opacity:1">
        <path
           d="M 0,0 L 0.501,-0.741 C 2.97,-4.253 5.562,-7.038 9.45,-9 L 10.359,-9.426 L 10.072,-9.477 L 9.798,-9.517 L 9.524,-9.538 L 9.271,-9.546 C 6.564,-9.755 4.175,-7.715 1.768,-6.745 L 1.315,-6.541 L 0.872,-6.378 C -2.467,-5.081 -5.901,-5.953 -9.247,-6.693 L -9.714,-6.805 L -10.18,-6.906 L -10.646,-7.018 L -11.136,-7.11 L -11.626,-7.211 C -13.66,-7.674 -15.732,-7.835 -17.781,-8.36 L -18.437,-8.501 L -19.048,-8.624 C -20.568,-8.913 -22.506,-9.267 -23.982,-8.624 L -24.114,-8.48 L -24.125,-8.328 L -24.04,-8.156 L -23.898,-7.995 C -23.37,-7.441 -21.672,-6.583 -21.543,-5.82 L -21.556,-5.607 L -21.664,-5.424 C -22.256,-4.704 -24.156,-4.735 -25.01,-4.774 L -25.331,-4.803 L -25.655,-4.835 L -25.929,-4.875 L -26.18,-4.927 L -26.585,-5.018 L -27.423,-5.26 C -30.589,-6.252 -33.409,-8.499 -36.636,-9.242 L -37.029,-9.334 L -37.448,-9.414 C -42.04,-10.37 -43.003,-5.586 -47.725,-5.728 L -48.033,-5.748 L -48.32,-5.78 L -48.608,-5.809 L -48.895,-5.852 C -52.984,-6.659 -57.04,-5.002 -60.951,-5.872 L -61.454,-5.993 L -61.954,-6.125 C -65.996,-7.417 -68.026,-8.937 -72.411,-8.664 L -72.756,-8.653 L -73.104,-8.633 L -73.425,-8.633 L -73.749,-8.624 L -83.774,39.995 L -83.571,39.926 L -83.392,39.843 L -83.199,39.753 L -83.02,39.682 C -80.439,38.38 -79.532,38.68 -76.687,38.829 L -76.329,38.829 L -75.97,38.808 C -71.187,38.318 -66.833,34.722 -61.728,34.755 L -61.13,34.755 L -59.913,34.795 L -59.278,34.836 C -54.908,34.963 -51.324,36.193 -47.198,36.715 L -46.661,36.766 L -46.434,36.766 C -43.992,36.223 -44.333,35.144 -41.01,35.019 L -40.78,35.01 L -40.567,34.979 L -40.34,34.959 L -40.124,34.928 L -39.908,34.899 L -39.695,34.856 C -36.598,34.021 -36.418,33.309 -32.777,34.135 L -32.31,34.238 L -31.844,34.35 C -28.553,35.272 -26.366,35.417 -23.073,34.572 L -22.726,34.502 L -22.475,34.442 L -22.236,34.379 L -21.985,34.298 C -17.052,33.108 -19.265,30.685 -16.872,28.102 L -16.656,27.869 L -16.442,27.676 C -14.511,25.994 -13.088,25.321 -10.538,25.442 L -10.325,25.462 L -10.109,25.493 L -9.93,25.522 L -9.75,25.553 L -9.93,24.264 L -10.18,22.985 L -10.457,21.704 L -10.754,20.414 L -11.065,19.115 L -11.339,17.834 L -11.589,16.556 L -11.769,15.286 L -11.711,14.899 L -11.566,14.462 L -11.387,13.985 L -11.16,13.528 L -10.862,13.083 C -10.041,11.853 -8.39,11.682 -7.29,10.765 L -6.881,10.471 L -6.489,10.167 L -6.083,9.851 C -3.001,7.356 -2.032,4.308 -0.406,0.862 L -0.216,0.426 L 0,0"
           style="fill:#d50000;fill-opacity:1;fill-rule:nonzero;stroke:none"
           id="path5179" />
      </g>
      <path
         id="path5231"
         style="opacity:1;fill:#4c0000;fill-opacity:1;fill-rule:nonzero;stroke:none"
         d="M 344.5398,333.68157 L 333.32649,311.53424 L 334.61203,311.1594 L 335.96326,310.7783 C 341.17581,309.26016 350.08546,308.40426 354.68807,312.61506 L 355.57951,313.6334 L 356.41933,315.08906 L 356.75245,316.4885 L 356.70084,317.81921 L 356.19413,319.14368 L 355.41529,320.41817 L 354.40187,321.69265 L 353.16794,322.82345 L 351.8824,324.02921 C 350.0057,325.4349 347.22818,327.97762 345.65174,329.87686 L 344.87291,331.07637 L 344.5398,332.35086 L 344.5398,333.68157" />
      <path
         style="opacity:1;fill:#000000;fill-opacity:0.3283582;fill-rule:nonzero;stroke:none"
         d="M 97.20399,38.200495 C 95.665393,38.171707 94.052291,38.233282 92.394937,38.356682 L 90.518233,38.669057 L 88.641529,38.981431 L 86.88212,39.293805 L 87.116708,43.82323 L 87.351296,48.508843 C 87.210505,57.723881 92.854729,64.00885 96.969402,70.375035 L 97.907754,71.780719 L 98.846105,73.186403 C 107.7323,86.39983 103.35489,88.792617 107.40857,102.08101 L 108.81609,104.73619 L 109.98903,105.8295 L 111.04468,105.36094 L 111.98303,103.79907 L 112.80409,101.92483 L 113.62515,100.05058 L 114.4462,98.957272 L 115.38456,99.113459 L 116.4402,101.14389 C 127.48933,132.86237 135.59196,166.63626 138.02229,201.57219 L 138.84335,204.69593 L 140.13359,203.29025 L 141.7757,198.13607 L 143.53511,190.48291 C 147.6967,166.27391 151.17329,155.51574 142.59676,132.5375 L 140.60276,126.91476 L 138.60876,120.97965 C 132.80975,104.64873 136.18312,102.28093 134.15159,87.243241 L 133.21324,84.119499 L 131.68842,81.620506 L 128.63878,77.403454 L 126.41019,72.874029 L 124.76807,68.344603 L 123.71243,63.658991 L 122.65678,58.817191 L 121.83573,53.975391 L 120.66279,48.821217 L 119.02067,43.82323 L 117.14397,42.729921 L 115.03267,41.792798 L 112.92138,41.16805 L 110.92739,40.387115 C 106.06087,39.047004 101.81982,38.28691 97.20399,38.200495 z M 142.59676,56.474385 L 144.23888,60.222875 L 145.88099,63.815178 C 149.92525,73.773666 153.94143,83.775887 158.31415,93.490724 L 159.95627,97.083027 L 161.71568,100.67533 L 163.47509,104.26763 L 165.46909,107.70375 L 167.46308,111.13987 L 169.57437,114.57598 L 170.39543,114.88836 L 171.33378,114.26361 L 172.27214,112.85792 L 173.32778,110.98368 L 174.38343,109.26562 L 175.43907,107.85994 L 176.14284,107.23519 L 176.72931,107.85994 L 178.37142,113.48267 L 179.54436,119.41778 C 182.1999,141.35894 180.09799,153.84141 192.91588,170.0224 L 194.3234,172.05283 L 195.73093,174.08326 C 204.73442,185.17879 207.85913,194.27513 212.85585,208.91298 L 213.7942,212.03672 L 214.84985,215.16047 L 215.7882,217.97183 L 216.84385,221.09557 C 222.57718,238.11371 224.8996,240.75016 234.90712,252.80155 L 236.31465,254.6758 L 237.60488,256.55004 C 249.68147,275.06133 232.56124,288.83079 231.3883,305.74898 L 231.27101,309.49747 L 231.27101,313.40214 L 231.15371,316.99445 L 232.44395,316.83826 C 235.12763,316.60085 237.62834,316.59461 240.30264,316.3697 L 241.71017,316.3697 L 241.94476,313.71452 L 242.17935,310.90315 L 242.29664,308.24797 L 242.53123,305.4366 L 242.76582,302.62523 L 243.23499,300.12624 L 243.93876,297.62725 L 244.9944,295.44063 L 245.81546,294.65969 L 246.9884,294.50351 L 248.39593,294.50351 L 249.92075,294.81588 L 251.32828,295.12825 L 252.61851,295.12825 L 253.67416,294.81588 L 254.14333,293.87876 L 254.37792,290.9112 L 254.26063,287.94365 L 253.67416,284.97609 C 243.56342,260.21106 260.97453,254.53835 252.14933,240.30659 L 250.50722,238.11997 L 248.74781,236.40191 L 246.87111,234.68385 L 244.75981,233.12198 C 228.69992,222.10767 224.62748,225.05648 216.96114,200.16651 L 215.55361,194.85614 L 214.26338,189.54578 L 213.09044,184.23542 C 211.32165,175.28278 209.71237,166.31764 207.92951,157.37124 L 206.75657,152.06088 L 205.46633,146.75052 L 203.94151,141.75253 L 202.29939,136.59836 L 200.3054,131.60037 L 199.48434,130.97563 L 198.07681,131.44419 L 196.4347,132.69368 L 194.79258,134.25555 L 193.03317,135.97361 L 191.50835,137.22311 L 190.4527,137.53548 L 189.86623,136.91073 L 189.74894,132.22512 C 190.49024,123.61609 193.75101,117 195.61364,108.95325 L 196.4347,104.26763 L 196.4347,99.582021 C 195.36497,89.342395 190.98756,80.227317 186.93388,71.624532 L 185.05718,67.095106 L 183.29777,62.409494 L 180.60001,62.721868 C 169.08643,64.289986 155.83221,63.003005 144.94264,57.567694 L 142.59676,56.474385 z M 254.7298,60.066688 L 255.66815,62.721868 L 256.37192,65.377049 L 257.07568,67.876042 C 263.97257,95.608621 265.11736,103.96775 286.98565,113.95123 L 288.97964,115.04454 L 290.97364,116.29404 L 292.85035,117.38735 C 301.2345,122.89138 302.57166,129.29505 306.45645,139.7221 L 307.74668,142.84584 L 309.15421,145.8134 C 312.29298,151.12376 316.66102,155.28458 320.41443,159.87024 L 321.70466,161.43211 L 322.8776,162.99398 L 324.05054,164.71204 L 325.10619,166.27391 L 325.92725,168.14815 L 326.8656,169.86621 C 332.00306,181.66146 325.9554,195.71205 329.56336,208.60061 L 330.26712,212.03672 L 331.08818,215.31665 C 333.70617,225.42508 336.87311,235.15243 340.00252,244.9922 L 341.05817,248.27213 L 341.99652,251.55206 L 343.05217,254.83199 C 348.54151,277.46036 367.61821,277.3604 359.23874,305.74898 L 358.76956,309.49747 L 358.65227,312.93358 L 359.00415,316.21351 L 359.59062,313.24596 L 360.52897,310.43459 L 361.58462,307.9356 C 366.26698,298.97669 367.95132,295.122 367.33202,283.41422 L 366.86285,277.47911 L 366.51096,271.544 L 366.27638,265.60889 L 366.51096,259.98616 L 367.56661,254.6758 L 369.44331,250.14637 L 369.56061,249.99019 L 370.02978,249.67781 C 370.24431,249.4836 370.40704,249.28502 370.61625,249.20925 C 370.79059,249.1461 371.03187,249.19704 371.20272,249.20925 L 371.32002,249.20925 L 372.02378,249.52162 L 373.31401,251.0835 L 374.48695,253.58249 L 374.60425,253.73868 C 374.64841,253.8459 374.67754,253.94154 374.72154,254.05105 C 375.4448,255.8513 376.14666,257.93698 376.83283,259.98616 C 376.86395,260.0956 376.92003,260.18871 376.95013,260.29853 L 377.18472,261.07947 C 377.42893,262.05651 377.60213,263.04344 377.77119,264.04702 C 380.78381,281.93168 372.29883,303.76851 366.27638,318.24394 L 364.51697,322.46099 L 362.87485,326.67805 L 364.39967,325.27236 L 365.92449,324.02287 C 374.17728,315.27638 375.12971,319.08109 378.00577,304.49948 L 379.06142,300.75099 L 380.23436,297.31487 L 381.75918,294.50351 L 383.51859,293.09782 L 385.98176,293.25401 L 387.74117,294.65969 L 387.85847,294.65969 L 387.85847,294.81588 L 388.44494,296.22156 L 388.67953,297.0025 L 388.67953,297.31487 L 388.44494,299.34531 L 388.32764,299.97005 L 388.09306,301.37574 L 387.62388,303.56236 L 386.33365,307.46703 L 385.16071,311.37171 L 383.98777,315.1202 L 383.284,318.55632 L 384.45694,315.74495 L 385.86447,312.93358 C 388.8895,308.74005 390.64747,304.55961 391.49458,300.43862 C 392.91729,295.62626 392.73332,292.18239 391.61187,287.94365 C 391.58607,287.84614 391.52138,287.72966 391.49458,287.63127 C 390.23199,280.53337 387.28658,273.39191 384.22235,266.23364 C 384.10885,265.9685 383.984,265.71807 383.87047,265.45271 C 382.19785,261.23096 380.49475,257.03423 378.94413,252.80155 L 378.00577,250.30256 L 377.18472,248.11594 L 376.36366,245.77313 L 375.5426,243.43033 C 375.1043,242.29076 374.78495,241.1587 374.48695,239.99421 C 374.19423,238.87758 373.99227,237.84425 373.78319,236.71428 C 373.36408,234.40611 373.07509,232.1423 372.72754,229.84205 C 372.37918,227.58866 371.95164,225.44917 371.32002,223.28219 C 370.99036,222.13721 370.63308,221.10622 370.14708,220.00227 C 369.69424,218.95534 369.25623,218.03511 368.62226,217.03471 L 367.21473,214.6919 L 365.92449,212.3491 C 364.95426,210.91667 364.05085,209.58581 363.34403,208.28823 C 362.62821,206.96352 362.08088,205.61836 361.58462,204.38356 C 359.58679,199.4455 359.08772,195.06331 358.30039,189.54578 C 357.91368,186.78644 357.43241,183.68409 356.65827,180.17456 L 355.48533,176.73844 L 353.84321,173.45851 L 353.02216,172.67758 L 352.31839,173.14614 L 351.61463,174.55182 L 351.49733,175.02038 C 350.55207,177.27118 350.16534,179.62078 350.08981,182.0488 C 350.07924,182.15156 349.98182,182.26007 349.97251,182.36118 C 349.96966,182.52031 349.97242,182.67025 349.97251,182.82974 C 349.7705,185.55554 350.11075,187.70567 350.67628,189.70197 C 350.77217,190.04048 350.79848,190.46206 350.91086,190.79528 C 353.58359,202.80624 360.32265,213.66897 351.96651,213.91097 L 350.32439,213.59859 L 349.26875,212.66147 L 348.2131,211.25579 L 347.15746,209.8501 L 346.10181,208.13205 C 344.15472,204.58348 342.61585,200.12902 341.29276,196.10564 L 340.70629,194.38758 L 340.00252,192.82571 L 339.76794,190.63909 L 339.88523,188.76485 L 340.35441,186.73442 L 341.05817,184.5478 L 341.05817,184.39161 L 341.87923,182.51736 L 342.4657,180.33074 L 342.81758,178.30031 L 342.58299,176.26988 L 342.11382,173.77089 L 341.99652,172.98995 C 341.90496,172.45332 341.75571,171.83787 341.64464,171.27189 C 341.44452,170.09827 341.16953,168.95263 340.94088,167.83578 C 339.74044,161.97229 338.1345,156.8481 336.24912,152.37326 C 336.14741,152.1319 336.11796,151.83013 336.01453,151.59232 C 335.94165,151.4026 335.85235,151.30834 335.77994,151.12376 C 334.68002,148.32004 333.65536,146.10808 332.84759,145.03246 L 331.67465,143.00203 L 330.26712,140.9716 C 329.2877,139.59091 328.29461,138.28813 327.21748,137.06692 C 327.19466,137.04108 327.12303,137.09271 327.10019,137.06692 C 326.6206,136.4918 326.18461,135.89544 325.69266,135.34886 C 325.34973,134.99131 324.98643,134.60206 324.63701,134.25555 C 324.37607,133.98012 324.0798,133.74306 323.81596,133.47462 C 323.19746,132.88211 322.5726,132.32263 321.93925,131.75656 C 321.40652,131.25566 320.83887,130.82868 320.29714,130.35088 C 319.10329,129.33274 317.99114,128.35793 316.77832,127.38332 C 298.31342,112.93254 276.77049,107.91771 274.78707,73.030216 L 274.08331,68.344603 L 273.14496,63.815178 L 271.97202,63.658991 C 266.67033,62.390751 261.19505,61.497361 255.90274,60.222875 L 254.7298,60.066688 z M 329.44607,61.316184 C 316.62818,61.372412 304.77211,69.46915 292.02929,70.375035 L 289.44882,70.375035 L 291.32552,73.654964 L 293.31952,77.247267 L 295.19622,80.83957 L 296.95563,84.744247 C 301.96643,95.364969 306.04357,105.11104 312.79032,114.10742 L 315.1362,117.07497 L 317.71667,119.73015 C 322.00963,124.30956 324.73084,124.99678 329.79795,123.63483 L 331.20548,123.63483 L 332.37842,124.10339 L 333.31677,124.72814 L 334.95888,127.22714 C 337.92877,132.98731 337.60972,140.54052 341.29276,145.65721 L 342.81758,147.53146 L 344.3424,149.09333 C 348.18495,152.6294 352.14479,154.57862 354.78157,160.18261 L 355.71992,162.52542 L 356.42368,164.71204 L 357.24474,167.05484 L 357.83121,169.39765 L 358.65227,171.74046 C 366.50158,192.17597 385.29677,209.56272 392.55023,230.93536 L 393.60587,235.62097 L 394.30964,240.46277 C 395.85792,290.68005 417.67929,262.81626 403.45857,311.05934 L 401.93374,316.05732 L 400.40892,321.2115 L 399.11869,326.67805 L 400.40892,326.52186 L 401.93374,326.0533 L 403.57586,325.58474 L 405.21798,325.11618 L 406.97739,324.64761 L 408.50221,324.17905 L 410.02703,323.86668 L 411.43456,323.5543 L 412.95938,320.58675 L 414.4842,317.77538 L 416.00902,314.96401 L 417.41655,312.15265 L 418.82408,309.18509 L 419.87972,306.21754 L 420.81808,303.0938 L 421.28725,299.81387 C 423.24371,284.53877 421.40455,266.33985 416.4782,252.33299 L 415.53985,249.52162 L 414.4842,246.86644 L 413.19397,244.21126 C 397.94106,217.5595 392.62059,210.19372 380.70353,178.61269 L 379.06142,174.8642 L 377.30201,171.42808 L 375.5426,167.99197 L 373.78319,165.02441 L 371.90649,162.21304 L 370.02978,159.71405 L 366.04179,154.2475 L 363.8132,149.56189 L 362.87485,145.18865 L 362.87485,141.12779 L 363.22673,137.06692 L 363.8132,132.84987 L 364.04779,128.00807 L 363.69591,122.54152 L 363.46132,121.76059 L 362.87485,121.29203 L 362.28838,121.13584 C 359.57654,120.92342 355.43842,124.64068 352.55298,125.04052 L 351.38004,125.1967 L 350.55898,125.1967 L 349.85522,124.72814 L 349.26875,124.10339 C 344.46439,114.92584 351.31436,103.15558 347.27475,92.865976 L 346.45369,90.679357 L 345.74993,88.492737 C 342.99587,81.845415 339.62718,75.947791 336.36641,69.750287 L 335.31077,67.719855 L 334.13783,65.689423 L 333.19947,63.658991 L 332.14383,61.472371 L 329.44607,61.316184 z M 227.5176,66.782732 L 226.93113,67.563668 L 226.34466,69.906474 L 225.75819,72.874029 L 225.28901,76.310145 C 224.10669,86.830907 224.34597,87.255736 228.69054,95.521156 L 229.3943,97.083027 L 229.86348,98.801085 C 231.66042,106.56671 230.03238,112.63301 234.55524,119.57397 L 235.61088,120.97965 L 236.54924,122.54152 L 237.60488,123.94721 C 251.59571,140.0907 253.52402,140.0907 264.34791,162.21304 L 265.99002,165.33678 L 266.92838,166.74247 L 267.74943,168.30434 C 281.74964,199.09194 288.63715,180.81805 285.46082,214.84809 L 285.22624,219.84608 L 285.22624,224.68788 C 288.75445,257.29973 314.13686,250.92106 318.42043,299.50149 L 319.1242,305.28041 L 320.06255,311.05934 L 321.0009,316.99445 L 323.22949,315.90114 C 331.02717,311.67158 344.76466,306.41746 352.67027,311.84027 L 355.13345,313.40214 L 353.72592,310.90315 L 352.2011,308.56034 L 350.67628,306.21754 C 341.61181,292.66675 333.80471,282.23345 327.10019,266.07746 L 326.27913,263.89084 L 325.45807,261.70422 C 317.80111,240.86261 313.91634,232.5722 303.64139,213.44241 L 302.58575,210.63104 L 301.64739,207.66349 L 300.94363,204.53974 L 300.47445,201.25981 L 300.12257,197.8237 C 300.87325,187.34042 296.98379,181.21164 291.7947,174.08326 L 289.21423,170.80333 L 286.63376,167.67959 C 281.29925,161.40712 274.09269,154.48491 270.3299,146.43815 L 269.27426,143.47059 L 268.21861,140.34685 L 267.04567,137.3793 C 254.67819,114.09492 240.74836,109.53426 231.27101,79.590073 L 229.98077,75.529209 L 228.80783,71.312158 L 227.86948,67.563668 L 227.5176,66.782732 z M 373.19672,98.02015 L 374.13507,102.86195 L 374.95613,107.85994 C 386.02867,171.98411 383.86578,176.76968 417.29926,224.3755 L 419.17596,227.65543 L 421.16996,230.93536 L 423.04666,234.0591 C 430.33766,245.58573 438.46847,255.98777 444.39417,268.88882 L 445.91899,272.32494 L 447.44381,275.91724 C 453.16306,289.2931 463.40048,302.08795 471.48907,313.08977 L 473.48307,315.58876 L 475.35978,317.77538 L 476.8846,319.80581 L 475.00789,316.52589 L 473.0139,312.93358 C 452.12618,273.48072 432.5334,242.7556 409.08868,206.10161 L 406.15633,201.10363 L 403.45857,195.79327 L 400.8781,190.63909 C 387.68019,164.78076 391.19431,143.93915 387.74117,115.20073 L 386.68553,114.26361 L 385.62988,113.48267 C 381.70289,110.0653 378.44211,106.77287 375.30801,102.08101 L 374.60425,100.67533 L 373.90048,99.269647 L 373.19672,98.02015 z M 175.55637,190.48291 L 175.20449,191.7324 L 175.55637,195.48089 L 176.61201,201.25981 C 178.18375,212.47405 183.25554,226.76204 180.01354,237.80759 L 179.54436,239.99421 L 179.19248,242.18083 C 178.3292,248.60324 182.10606,253.34508 184.82259,257.95573 L 186.11283,260.14235 L 187.16847,262.48515 L 187.87223,264.82796 L 188.4587,269.2012 C 188.05991,282.43337 188.6323,281.57123 189.98353,292.47307 L 189.86623,293.56638 L 189.51435,294.65969 C 187.92854,298.49565 186.15974,299.58898 185.76094,304.49948 L 185.52636,308.09178 L 185.52636,311.68409 L 185.40906,315.27639 L 187.40306,315.43258 C 196.66928,316.37595 205.75722,317.98778 215.08444,318.24394 L 217.07844,318.24394 L 216.02279,314.49545 L 214.73256,310.74696 L 213.32503,306.99847 C 209.80621,297.32737 209.47309,295.56557 208.98515,284.97609 L 207.92951,282.32091 L 206.52198,279.82192 C 202.49176,274.07423 199.14653,273.25583 196.20011,265.60889 L 194.90987,262.64134 L 193.61964,259.67379 L 192.32941,256.70623 C 184.42848,236.72678 191.89776,217.57824 179.07519,196.73039 L 177.19848,192.82571 L 175.55637,190.48291 z M 171.68567,275.13631 L 169.45708,276.54199 C 143.57734,311.01562 150.30063,258.36181 107.29127,294.81588 L 105.76645,296.22156 L 106.58751,300.90718 C 107.99504,310.32211 109.46825,319.74334 110.81009,329.17704 L 111.63115,333.86265 L 112.80409,333.86265 C 136.96196,338.98561 149.81268,323.85418 172.9759,316.3697 L 175.79096,315.58876 L 175.67366,310.12221 C 175.51883,300.47611 175.91294,285.9507 173.21049,277.01055 L 171.68567,275.13631 z"
         id="path5183" />
    </g>
  </g>
</svg>
