<?xml version="1.0" encoding="UTF-8" standalone="no"?>
<svg
   xmlns:dc="http://purl.org/dc/elements/1.1/"
   xmlns:cc="http://creativecommons.org/ns#"
   xmlns:rdf="http://www.w3.org/1999/02/22-rdf-syntax-ns#"
   xmlns:svg="http://www.w3.org/2000/svg"
   xmlns="http://www.w3.org/2000/svg"
   xmlns:sodipodi="http://sodipodi.sourceforge.net/DTD/sodipodi-0.dtd"
   xmlns:inkscape="http://www.inkscape.org/namespaces/inkscape"
   version="1.1"
   x="0px"
   y="0px"
   viewBox="0 0 100 125"
   enable-background="new 0 0 100 100"
   xml:space="preserve"
   id="svg4262"
   inkscape:version="0.91 r13725"
   sodipodi:docname="noun_154483_cc.svg"><metadata
     id="metadata4274"><rdf:RDF><cc:Work
         rdf:about=""><dc:format>image/svg+xml</dc:format><dc:type
           rdf:resource="http://purl.org/dc/dcmitype/StillImage" /></cc:Work></rdf:RDF></metadata><defs
     id="defs4272" /><sodipodi:namedview
     pagecolor="#ffffff"
     bordercolor="#666666"
     borderopacity="1"
     objecttolerance="10"
     gridtolerance="10"
     guidetolerance="10"
     inkscape:pageopacity="0"
     inkscape:pageshadow="2"
     inkscape:window-width="880"
     inkscape:window-height="480"
     id="namedview4270"
     showgrid="false"
     inkscape:zoom="1.888"
     inkscape:cx="50"
     inkscape:cy="62.5"
     inkscape:window-x="0"
     inkscape:window-y="38"
     inkscape:window-maximized="0"
     inkscape:current-layer="svg4262" /><path
     d="m 91.388983,87.511864 -30.1,-52.2 c -0.5,-0.8 -1.3,-1.3 -2.3,-1.3 -0.9,0 -1.8,0.5 -2.3,1.3 l -15.9,27.6 -5.1,-8.9 c -0.5,-0.8 -1.3,-1.3 -2.3,-1.3 -0.9,0 -1.8,0.5 -2.3,1.3 l -19.3,33.5 c -0.5,0.8 -0.5,1.8 0,2.6 0.5,0.8 1.3,1.3 2.3,1.3 l 14.8,0 23.8,0 36.4,0 c 0.9,0 1.8,-0.5 2.3,-1.3 0.5,-0.8 0.5,-1.8 0,-2.6 z"
     id="path4264"
     inkscape:connector-curvature="0"
     style="fill:#000000" /></svg>