<?xml version="1.0" encoding="UTF-8" standalone="no"?>
<!-- Created with Inkscape (http://www.inkscape.org/) -->
<svg
   xmlns:dc="http://purl.org/dc/elements/1.1/"
   xmlns:cc="http://creativecommons.org/ns#"
   xmlns:rdf="http://www.w3.org/1999/02/22-rdf-syntax-ns#"
   xmlns:svg="http://www.w3.org/2000/svg"
   xmlns="http://www.w3.org/2000/svg"
   xmlns:xlink="http://www.w3.org/1999/xlink"
   xmlns:sodipodi="http://sodipodi.sourceforge.net/DTD/sodipodi-0.dtd"
   xmlns:inkscape="http://www.inkscape.org/namespaces/inkscape"
   width="427.88696"
   height="424.22333"
   id="svg2"
   sodipodi:version="0.32"
   inkscape:version="0.46"
   version="1.0"
   sodipodi:docbase="C:\Documents and Settings\Sigurd\Mine dokumenter\Mine bilder"
   sodipodi:docname="Red_flag_II.svg"
   inkscape:output_extension="org.inkscape.output.svg.inkscape"
   sodipodi:modified="true">
  <defs
     id="defs4">
    <linearGradient
       id="linearGradient3261">
      <stop
         style="stop-color:#966012;stop-opacity:1;"
         offset="0"
         id="stop3263" />
      <stop
         style="stop-color:#261804;stop-opacity:1;"
         offset="1"
         id="stop3265" />
    </linearGradient>
    <linearGradient
       id="linearGradient3243">
      <stop
         style="stop-color:#ecb15b;stop-opacity:1;"
         offset="0"
         id="stop3245" />
      <stop
         id="stop3251"
         offset="0.48115161"
         style="stop-color:#7f510f;stop-opacity:1;" />
      <stop
         style="stop-color:#88560f;stop-opacity:1;"
         offset="0.59218663"
         id="stop3255" />
      <stop
         style="stop-color:#5b3a0a;stop-opacity:1;"
         offset="0.85126823"
         id="stop3253" />
      <stop
         style="stop-color:#301e05;stop-opacity:1;"
         offset="1"
         id="stop3247" />
    </linearGradient>
    <inkscape:perspective
       sodipodi:type="inkscape:persp3d"
       inkscape:vp_x="0 : 212.11166 : 1"
       inkscape:vp_y="0 : 1000 : 0"
       inkscape:vp_z="427.88696 : 212.11166 : 1"
       inkscape:persp3d-origin="213.94348 : 141.40778 : 1"
       id="perspective49" />
    <linearGradient
       inkscape:collect="always"
       id="linearGradient21204">
      <stop
         style="stop-color:#000000;stop-opacity:1;"
         offset="0"
         id="stop21206" />
      <stop
         style="stop-color:#000000;stop-opacity:0;"
         offset="1"
         id="stop21208" />
    </linearGradient>
    <filter
       inkscape:collect="always"
       x="-0.16202419"
       width="1.3240484"
       y="-0.059217479"
       height="1.118435"
       id="filter14059">
      <feGaussianBlur
         inkscape:collect="always"
         stdDeviation="4.8118734"
         id="feGaussianBlur14061" />
    </filter>
    <filter
       inkscape:collect="always"
       x="-0.21728383"
       width="1.4345677"
       y="-0.03480554"
       height="1.0696111"
       id="filter15038">
      <feGaussianBlur
         inkscape:collect="always"
         stdDeviation="2.0068108"
         id="feGaussianBlur15040" />
    </filter>
    <filter
       inkscape:collect="always"
       x="-0.13047414"
       width="1.2609483"
       y="-0.054144844"
       height="1.1082897"
       id="filter16109">
      <feGaussianBlur
         inkscape:collect="always"
         stdDeviation="7.2169462"
         id="feGaussianBlur16111" />
    </filter>
    <filter
       inkscape:collect="always"
       x="-0.18223315"
       width="1.3644663"
       y="-0.092201099"
       height="1.1844022"
       id="filter17140">
      <feGaussianBlur
         inkscape:collect="always"
         stdDeviation="2.2508066"
         id="feGaussianBlur17142" />
    </filter>
    <filter
       inkscape:collect="always"
       x="-0.12658006"
       width="1.2531601"
       y="-0.049751587"
       height="1.0995032"
       id="filter18191">
      <feGaussianBlur
         inkscape:collect="always"
         stdDeviation="6.82018"
         id="feGaussianBlur18193" />
    </filter>
    <filter
       inkscape:collect="always"
       id="filter19220">
      <feGaussianBlur
         inkscape:collect="always"
         stdDeviation="4.5984856"
         id="feGaussianBlur19222" />
    </filter>
    <linearGradient
       inkscape:collect="always"
       xlink:href="#linearGradient21204"
       id="linearGradient21210"
       x1="110.30865"
       y1="186.75169"
       x2="98.287842"
       y2="188.87302"
       gradientUnits="userSpaceOnUse"
       gradientTransform="matrix(0.990071,0,0,1.0017509,2.8734173,2.0725771)" />
    <clipPath
       clipPathUnits="userSpaceOnUse"
       id="clipPath22220">
      <path
         sodipodi:nodetypes="cscsscssscssssssssssscssssscsssc"
         id="path22222"
         d="M 88.388348,22.702923 C 88.388348,22.702923 98.486113,36.016634 115.96551,29.773991 C 125.86501,26.238456 162.63456,50.280087 162.63456,50.280087 C 162.63456,50.280087 178.19091,58.058262 199.40411,54.522728 C 220.61731,50.987194 219.2031,54.522728 237.58788,46.037446 C 255.97265,37.552165 264.45794,51.694301 264.45794,51.694301 C 264.45794,51.694301 270.11479,53.815621 277.18586,53.108514 C 284.25693,52.401408 289.91378,60.886689 294.86353,60.886689 C 299.81328,60.886689 309.71277,63.008009 323.85491,55.936941 C 337.99704,48.865874 360.62446,58.765369 360.62446,58.765369 C 360.62446,58.765369 368.72081,61.008418 371.78386,66.213924 C 374.59159,70.985515 374.98186,81.300632 376.88791,84.221213 C 382.25676,92.447733 383.95177,115.33397 412.24325,113.9197 C 414.36193,113.81379 408.70772,139.37554 408.70772,151.39636 C 408.70772,163.41717 401.63665,183.21616 412.24325,191.70144 C 422.84986,200.18672 438.14766,227.69795 441.23463,231.29942 C 449.71991,241.19891 462.33857,312.50751 502.75292,331.70859 C 504.5594,332.56686 478.00418,329.58727 474.46865,323.2233 C 470.93312,316.85934 446.89149,302.71721 419.31432,314.73802 C 391.73716,326.75884 382.54477,320.39488 372.64527,327.46595 C 362.74578,334.53701 354.2605,328.88016 351.43207,326.05173 C 348.60364,323.2233 340.11836,304.83853 340.11836,304.83853 C 340.11836,304.83853 313.95541,318.27356 309.00566,323.93041 C 304.05592,329.58727 286.37825,337.36544 274.35743,328.17305 C 262.33662,318.98066 260.89073,306.11892 239.7092,311.20249 C 222.03153,315.44513 216.36692,307.54557 204.35386,308.37406 C 183.84776,309.78828 166.1701,318.98067 159.80614,324.63752 C 153.44217,330.29438 132.93607,327.46595 132.93607,327.46595 C 132.93607,327.46595 124.45079,271.60451 122.32947,259.58369 C 120.20815,247.56288 116.67262,210.08622 113.13708,200.89383 C 109.60155,191.70145 107.48023,154.22478 103.9447,136.54711 C 100.40916,118.86944 89.095454,35.430845 88.388348,22.702923 z "
         style="opacity:0.12244897;fill:#ff0000;fill-opacity:1;fill-rule:evenodd;stroke:#000000;stroke-width:1px;stroke-linecap:butt;stroke-linejoin:miter;stroke-opacity:1" />
    </clipPath>
    <linearGradient
       inkscape:collect="always"
       xlink:href="#linearGradient3243"
       id="linearGradient3249"
       x1="-155.75221"
       y1="156.08174"
       x2="-131.84203"
       y2="156.08174"
       gradientUnits="userSpaceOnUse" />
    <linearGradient
       inkscape:collect="always"
       xlink:href="#linearGradient3261"
       id="linearGradient3267"
       x1="-111.27168"
       y1="74.352806"
       x2="-25.430967"
       y2="27.45015"
       gradientUnits="userSpaceOnUse" />
    <linearGradient
       inkscape:collect="always"
       xlink:href="#linearGradient3243"
       id="linearGradient3273"
       gradientUnits="userSpaceOnUse"
       x1="-155.75221"
       y1="156.08174"
       x2="-131.84203"
       y2="156.08174"
       gradientTransform="matrix(1,0,0,1.2704147,75.453991,10.476931)" />
    <linearGradient
       inkscape:collect="always"
       xlink:href="#linearGradient3261"
       id="linearGradient3275"
       gradientUnits="userSpaceOnUse"
       x1="-111.27168"
       y1="74.352806"
       x2="-25.430967"
       y2="27.45015"
       gradientTransform="matrix(1,0,0,0.5384615,0,19.81702)" />
    <filter
       inkscape:collect="always"
       id="filter3287">
      <feGaussianBlur
         inkscape:collect="always"
         stdDeviation="2.7055529"
         id="feGaussianBlur3289" />
    </filter>
  </defs>
  <sodipodi:namedview
     id="base"
     pagecolor="#ffffff"
     bordercolor="#666666"
     borderopacity="1.0"
     gridtolerance="10000"
     guidetolerance="10"
     objecttolerance="10"
     inkscape:pageopacity="0.0"
     inkscape:pageshadow="2"
     inkscape:zoom="1.1317157"
     inkscape:cx="207.34703"
     inkscape:cy="247.83821"
     inkscape:document-units="px"
     inkscape:current-layer="g3308"
     width="500px"
     height="500px"
     inkscape:window-width="1280"
     inkscape:window-height="750"
     inkscape:window-x="-8"
     inkscape:window-y="-8"
     showgrid="false" />
  <metadata
     id="metadata7">
    <rdf:RDF>
      <cc:Work
         rdf:about="">
        <dc:format>image/svg+xml</dc:format>
        <dc:type
           rdf:resource="http://purl.org/dc/dcmitype/StillImage" />
      </cc:Work>
    </rdf:RDF>
  </metadata>
  <g
     inkscape:label="Layer 1"
     inkscape:groupmode="layer"
     id="layer1"
     transform="translate(-75.453991,-17.386114)">
    <g
       id="g3269"
       transform="matrix(0.5552064,-8.3390692e-2,0.1494871,1.0288818,119.824,-26.456253)">
      <path
         sodipodi:nodetypes="ccccc"
         id="rect3233"
         d="M -85.607959,42.936442 L -56.404419,42.936442 L -56.404419,462.84839 L -85.607959,462.84839 L -85.607959,42.936442 z"
         style="fill:url(#linearGradient3273);fill-opacity:1;fill-rule:nonzero;stroke:none;stroke-width:0.75099999;stroke-linecap:round;stroke-linejoin:round;stroke-miterlimit:4;stroke-dashoffset:110.99999176;stroke-opacity:1" />
      <path
         sodipodi:nodetypes="csssc"
         id="path3257"
         d="M -56.40401,42.936877 C -56.40401,44.646613 -62.945709,46.034223 -71.006009,46.034223 C -79.066315,46.034223 -85.608009,44.646451 -85.608009,42.936717 C -85.608009,41.226982 -79.066315,39.839532 -71.006009,39.839532 C -62.945709,39.839532 -56.40401,41.227143 -56.40401,42.936877 z"
         style="fill:url(#linearGradient3275);fill-opacity:1;fill-rule:nonzero;stroke:none;stroke-width:0.75099999;stroke-linecap:round;stroke-linejoin:round;stroke-miterlimit:4;stroke-dashoffset:110.99999176;stroke-opacity:1" />
    </g>
    <g
       id="g21212"
       clip-path="url(#clipPath22220)"
       transform="matrix(0.9900711,0,0,1.0017508,3.7583732,7.8424885)" />
    <g
       id="g3308">
      <path
         style="fill:#5aa02c;fill-opacity:1;fill-rule:evenodd;stroke:none;stroke-width:0.99589377999999995px;stroke-linecap:butt;stroke-linejoin:miter;stroke-opacity:1"
         d="M 91.269117,30.58516 C 91.269117,30.58516 101.26662,43.922181 118.57247,37.668608 C 128.37368,34.126883 164.77815,58.210606 164.77815,58.210606 C 164.77815,58.210606 180.18004,66.002399 201.18261,62.460675 C 222.18519,58.918951 220.78502,62.460675 238.98726,53.960537 C 257.18949,45.460401 265.59052,59.627296 265.59052,59.627296 C 265.59052,59.627296 271.1912,61.75233 278.19207,61.043985 C 285.19293,60.335641 290.79361,68.835778 295.69422,68.835778 C 300.59482,68.835778 310.39602,70.960812 324.39774,63.877364 C 338.39946,56.793917 360.80221,66.710744 360.80221,66.710744 C 360.80221,66.710744 368.81817,68.95772 371.85081,74.17234 C 374.63066,78.952285 375.01705,89.285462 376.90418,92.211157 C 382.21972,100.45208 383.8979,123.37839 411.90848,121.96164 C 414.00613,121.85554 408.40805,147.46205 408.40805,159.50391 C 408.40805,171.54576 401.40719,191.37942 411.90848,199.87956 C 422.40978,208.37969 437.55568,235.93909 440.612,239.54687 C 449.01303,249.46368 461.5064,320.89713 501.51948,340.13183 C 503.30803,340.9916 477.01647,338.00679 473.51605,331.63168 C 470.01561,325.25658 446.21269,311.08969 418.90934,323.13155 C 391.60599,335.17342 382.50487,328.79831 372.70366,335.88177 C 362.90247,342.9652 354.50144,337.29844 351.70109,334.46507 C 348.90074,331.63168 340.49995,313.21435 340.49995,313.21435 C 340.49995,313.21435 314.59654,326.67328 309.69593,332.34003 C 304.79534,338.00679 287.29319,345.79858 275.39173,336.59011 C 263.49027,327.38162 262.05873,314.49736 241.08752,319.58982 C 223.58537,323.8399 217.977,315.9265 206.08322,316.75645 C 185.78072,318.17315 168.27858,327.38163 161.97781,333.04838 C 155.67702,338.71514 135.37453,335.88177 135.37453,335.88177 C 135.37453,335.88177 126.9735,279.92252 124.87324,267.88065 C 122.77299,255.8388 119.27256,218.29653 115.77212,209.08804 C 112.2717,199.87957 110.17144,162.33728 106.67102,144.62866 C 103.17058,126.92004 91.969202,43.335366 91.269117,30.58516 z"
         id="path3329"
         sodipodi:nodetypes="cscsscssscssssssssssscssssscsssc" />
      <g
         id="g3394"
         style="fill:#000000;fill-opacity:1;opacity:0.3">
        <path
           id="path10008"
           d="M 329.47454,319.23023 C 329.47454,319.23023 324.39776,267.17232 310.39604,255.13045 C 296.39431,243.0886 295.69423,223.25494 295.69423,213.33811 C 295.69423,203.42129 298.49457,199.17122 287.99328,183.58764 C 277.49199,168.00405 266.99071,145.33701 266.99071,145.33701 C 266.99071,145.33701 253.68907,122.66998 250.18864,121.25329 C 246.68821,119.83661 244.58795,97.877914 244.58795,97.877914 C 244.58795,97.877914 237.58709,84.419363 239.68736,81.585984 C 241.78761,78.752605 242.48769,66.710744 242.48769,66.710744 C 242.48769,66.710744 252.2889,102.83633 261.39002,113.4615 C 270.49113,124.08667 301.99501,171.54577 302.69509,175.0875 C 303.39517,178.62922 311.7962,192.08777 311.09613,211.21308 C 310.39604,230.33838 315.99672,211.21308 325.09784,245.21363 C 334.19896,279.21418 361.50232,316.75645 361.50232,316.75645 C 361.50232,316.75645 356.07781,302.22995 329.47454,319.23023 z"
           style="opacity:1;fill:#000000;fill-opacity:1;fill-rule:evenodd;stroke:none;stroke-width:1px;stroke-linecap:butt;stroke-linejoin:miter;stroke-opacity:1"
           sodipodi:nodetypes="cssscscscsssscc" />
        <path
           id="path3337"
           d="M 189.23524,280.01111 C 188.57891,280.01111 187.87282,280.43818 187.17274,281.32361 C 184.37239,284.86534 175.29295,294.81335 163.39149,285.60486 C 152.15956,276.91443 131.79703,295.12786 129.51649,297.22986 C 132.39103,315.95573 135.36024,335.8861 135.36024,335.88611 C 135.36024,335.88611 155.68445,338.70912 161.98524,333.04236 C 167.15614,328.39179 179.86938,321.35554 195.48524,318.19861 C 195.17556,316.35747 192.76649,301.93591 192.76649,291.97986 C 192.76649,284.01098 191.20423,280.01111 189.23524,280.01111 z"
           style="opacity:1;fill:#000000;fill-opacity:1;fill-rule:evenodd;stroke:none;stroke-width:0.99589377999999995px;stroke-linecap:butt;stroke-linejoin:miter;stroke-opacity:1" />
        <path
           id="path3339"
           d="M 196.26649,194.19861 C 196.26649,194.19861 200.47873,223.25061 202.57899,228.91736 C 204.67925,234.58412 198.39757,243.09436 199.79774,248.76111 C 201.19791,254.42788 209.59157,266.46921 208.89149,280.63611 C 208.1914,294.80301 209.57899,296.22986 209.57899,296.22986 C 209.579,296.22987 205.39756,308.25056 206.79774,316.04236 C 206.83971,316.27594 206.89626,316.5131 206.98524,316.72986 C 217.06713,316.39458 222.76711,322.25823 236.04774,320.54236 L 226.39149,291.97986 C 226.39149,291.97985 229.87976,287.00081 223.57899,279.91736 C 217.27822,272.83391 207.49131,255.82395 208.89149,234.57361 C 210.29166,213.32326 200.46702,198.44868 196.26649,194.19861 z"
           style="opacity:1;fill:#000000;fill-opacity:1;fill-rule:evenodd;stroke:none;stroke-width:0.99589377999999995px;stroke-linecap:butt;stroke-linejoin:miter;stroke-opacity:1" />
        <path
           id="path3341"
           d="M 380.14149,99.261114 C 382.11736,116.3465 390.29178,184.3777 395.79774,189.94861 C 402.09851,196.32371 432.20399,243.79226 432.20399,250.16736 C 432.20398,255.79103 458.03346,301.36411 477.61024,319.44861 C 471.98219,312.02444 467.22147,303.61885 463.14149,295.07361 C 455.4429,283.14227 444.44638,267.40313 437.79774,255.13611 C 425.89628,233.17742 399.31684,199.16788 396.51649,167.29236 C 394.03268,139.01976 392.82849,121.56675 392.54774,117.41736 C 385.64551,112.70476 382.57881,105.31129 380.14149,99.261114 z"
           style="opacity:1;fill:#000000;fill-opacity:1;fill-rule:evenodd;stroke:none;stroke-width:0.99589377999999995px;stroke-linecap:butt;stroke-linejoin:miter;stroke-opacity:1" />
        <path
           id="path3343"
           d="M 335.98524,61.323614 C 331.91599,61.390021 327.89192,62.115252 324.39149,63.886114 C 314.83002,68.723249 307.28118,69.246917 301.86024,69.104864 C 304.63019,77.24531 320.19613,122.09693 327.20399,123.38611 C 334.90494,124.8028 343.29774,121.96929 343.29774,131.88611 C 343.29773,141.80294 349.59722,151.01108 353.79774,153.13611 C 357.99825,155.26115 367.79774,177.19851 367.79774,183.57361 C 367.79775,189.94871 392.30381,214.03175 393.70399,226.07361 C 395.10415,238.11548 400.70313,269.30263 407.70399,278.51111 C 414.46218,287.40039 403.07248,326.30049 402.26649,329.01111 C 405.26488,328.23871 408.56699,327.24088 412.26649,325.85486 C 415.48388,320.29785 428.58978,295.40475 422.42274,268.57361 C 415.42188,238.11478 407.72351,230.34462 401.42274,219.01111 C 395.12197,207.67759 374.81683,160.21952 372.01649,155.26111 C 369.21614,150.30269 367.79774,142.50083 367.79774,133.29236 C 367.79775,124.08388 369.1927,122.67773 359.39149,125.51111 C 349.59029,128.34449 357.30425,99.990372 355.20399,94.323614 C 353.10372,88.656859 341.20399,61.761114 341.20399,61.761114 C 341.20399,61.761114 341.06824,61.599456 341.04774,61.573614 C 339.37847,61.410147 337.67383,61.296057 335.98524,61.323614 z"
           style="opacity:1;fill:#000000;fill-opacity:1;fill-rule:evenodd;stroke:none;stroke-width:0.99589377999999995px;stroke-linecap:butt;stroke-linejoin:miter;stroke-opacity:1" />
        <path
           id="path3345"
           d="M 269.14149,60.573614 C 269.39028,61.983796 277.69671,108.55406 290.79774,112.04236 C 304.09938,115.5841 313.89149,134.69861 313.89149,134.69861 C 313.89149,134.69861 318.80947,148.86517 325.11024,155.94861 C 331.41102,163.03206 339.78558,182.16711 336.98524,197.04236 C 334.18489,211.91759 349.61024,254.41736 349.61024,254.41736 L 362.20399,282.04236 C 362.20398,282.04237 372.70484,296.22959 365.70399,313.22986 C 358.70313,330.23013 377.98576,304.54446 372.70399,270.69861 C 368.50347,243.78151 379.01649,254.41736 379.01649,254.41736 C 379.01648,254.41737 391.58893,283.50332 370.61024,325.97986 C 367.9548,331.35642 384.61024,306.12581 384.61024,299.04236 C 384.61025,291.95891 393.7105,291.96924 391.61024,304.01111 C 389.51,316.05299 388.11024,318.16736 388.11024,318.16736 C 388.11025,318.16737 400.71092,301.178 395.11024,287.01111 C 389.50957,272.8442 374.79774,231.74044 374.79774,221.82361 C 374.79775,211.90679 365.01649,201.28206 365.01649,194.19861 C 365.01648,187.11516 360.11024,172.94861 360.11024,172.94861 C 360.11023,172.94861 356.59115,187.11516 359.39149,194.19861 C 362.19184,201.28206 369.20571,227.51138 355.20399,210.51111 C 341.20226,193.51083 350.29774,182.88611 350.29774,182.88611 C 350.29774,182.8861 349.59201,165.86544 345.39149,155.94861 C 341.19097,146.03179 314.60502,114.86533 306.20399,111.32361 C 298.07357,107.89597 287.95651,94.151303 284.14149,62.448614 C 282.26839,61.475694 280.31183,60.829093 278.20399,61.042364 C 274.63173,61.403804 271.42658,61.028855 269.14149,60.573614 z"
           style="opacity:1;fill:#000000;fill-opacity:1;fill-rule:evenodd;stroke:none;stroke-width:0.99589377999999995px;stroke-linecap:butt;stroke-linejoin:miter;stroke-opacity:1" />
        <path
           id="path3347"
           d="M 166.20399,58.823614 C 166.19818,58.856509 166.17754,58.88335 166.17274,58.917364 C 165.47266,63.875777 190.67274,119.82361 190.67274,119.82361 C 190.67274,119.82361 188.58464,107.78192 193.48524,109.19861 C 198.38584,110.6153 199.79774,142.51111 199.79774,142.51111 C 199.79774,142.51111 200.49003,163.0422 212.39149,173.66736 C 224.29296,184.29253 227.79774,209.79236 227.79774,209.79236 C 227.79774,209.79236 234.07119,233.86502 246.67274,249.44861 C 259.2743,265.0322 255.092,279.22971 250.89149,289.85486 C 246.78732,300.23632 246.67489,317.79284 246.67274,318.60486 C 250.16218,318.24573 252.99105,318.52431 255.39149,319.26111 C 256.23524,318.2612 258.71832,314.4313 259.29774,303.29236 C 259.99782,289.83381 265.58507,305.43834 266.98524,296.22986 C 268.38541,287.02138 257.88455,282.04253 263.48524,271.41736 C 269.08592,260.79219 265.59894,234.59448 255.79774,231.76111 C 245.99654,228.92773 234.07899,212.63628 234.07899,202.01111 C 234.07899,191.38594 219.37891,176.49048 220.07899,164.44861 C 220.77907,152.40675 199.76692,105.66743 196.26649,101.41736 C 193.77393,98.391003 188.60989,74.937175 184.82899,63.167364 C 175.54127,62.421051 168.89122,59.962548 166.20399,58.823614 z"
           style="opacity:1;fill:#000000;fill-opacity:1;fill-rule:evenodd;stroke:none;stroke-width:0.99589377999999995px;stroke-linecap:butt;stroke-linejoin:miter;stroke-opacity:1" />
        <path
           id="path9978"
           d="M 120.70399,37.323614 C 119.89896,37.341772 119.19157,37.446006 118.57899,37.667364 C 116.82939,38.299593 115.14517,38.74533 113.54774,39.011114 C 113.11637,43.591344 112.2233,59.678493 119.98524,68.136114 C 129.08635,78.052941 130.47223,107.78192 134.67274,109.19861 C 138.51675,110.49506 138.8013,101.48789 138.82899,99.886114 C 138.72562,99.205329 138.86024,99.292364 138.86024,99.292364 C 138.86024,99.292364 138.83156,99.737559 138.82899,99.886114 C 139.0359,101.24883 140.25798,105.88829 145.86024,121.94861 C 154.26127,146.03233 159.17274,204.13611 159.17274,204.13611 C 172.47437,175.09398 152.87326,124.07385 148.67274,109.19861 C 144.47223,94.323369 140.28558,87.94865 137.48524,85.823614 C 136.06503,84.745893 130.22105,71.726152 126.23524,58.792364 C 123.57616,50.163753 121.85279,41.865309 120.98524,37.323614 C 120.89483,37.323329 120.7923,37.321622 120.70399,37.323614 z"
           style="opacity:1;fill:#000000;fill-opacity:1;fill-rule:evenodd;stroke:none;stroke-width:0.99589377999999995px;stroke-linecap:butt;stroke-linejoin:miter;stroke-opacity:1" />
        <path
           id="path10010"
           d="M 266.29062,92.9195 C 266.29062,92.9195 271.19122,120.54494 280.99243,125.50336 C 290.79363,130.46178 292.89389,143.21198 292.89389,143.21198 C 292.89389,143.21198 298.49457,127.62839 288.69337,119.83661 C 278.89217,112.04481 268.39087,102.83633 266.29062,92.9195 z"
           style="opacity:1;fill:#000000;fill-opacity:1;fill-rule:evenodd;stroke:none;stroke-width:1px;stroke-linecap:butt;stroke-linejoin:miter;stroke-opacity:1" />
      </g>
      <path
         style="opacity:0.31632654999999998;fill:#ffffff;fill-opacity:1;fill-rule:evenodd;stroke:none;stroke-width:1px;stroke-linecap:butt;stroke-linejoin:miter;stroke-opacity:1;filter:url(#filter14059)"
         d="M 156.97771,190.28723 C 156.97771,190.28723 141.42136,157.76032 137.17872,138.66843 C 132.93607,119.57655 133.64318,112.50548 125.1579,123.81919 C 116.67262,135.1329 117.37973,96.949135 117.37973,96.949135 C 117.37973,96.949135 114.5513,94.827814 106.77312,76.443038 C 98.994949,58.058262 97.580736,30.481097 97.580736,29.066884 C 97.580736,27.65267 108.89444,34.016631 110.30866,28.359777 C 111.72287,22.702923 111.72287,59.472475 122.32947,70.079077 C 132.93607,80.685679 127.27922,99.070455 130.10765,102.60599 C 132.93607,106.14152 135.7645,92.706494 135.7645,92.706494 C 135.7645,92.706494 156.2706,145.7395 156.97771,190.28723 z"
         id="path12870"
         transform="matrix(0.9900711,0,0,1.0017508,3.758373,7.8424885)" />
      <path
         style="opacity:0.22448982000000001;fill:#ffffff;fill-opacity:1;fill-rule:evenodd;stroke:none;stroke-width:1px;stroke-linecap:butt;stroke-linejoin:miter;stroke-opacity:1;filter:url(#filter15038)"
         d="M 193.04015,190.99434 C 193.04015,190.99434 183.84776,219.98571 188.79751,238.37049 C 193.74726,256.75527 197.9899,289.98929 195.16147,300.59589 C 192.33304,311.20249 204.35386,300.59589 204.35386,300.59589 C 204.35386,300.59589 206.47518,262.41212 201.52543,252.51263 C 196.57569,242.61313 193.74726,239.0776 199.40411,224.93546 C 205.06097,210.79333 195.16147,190.99434 193.04015,190.99434 z"
         id="path14063"
         transform="matrix(0.9900711,0,0,1.0017508,3.758373,7.8424885)" />
      <path
         style="opacity:0.30612242000000001;fill:#ffffff;fill-opacity:1;fill-rule:evenodd;stroke:none;stroke-width:1px;stroke-linecap:butt;stroke-linejoin:miter;stroke-opacity:1;filter:url(#filter16109)"
         d="M 234.05234,310.49538 C 234.05234,310.49538 235.46656,280.7969 238.29499,267.36187 C 241.12341,253.92684 218.496,202.30805 218.496,202.30805 C 218.496,202.30805 209.30361,186.04459 200.11122,168.36692 C 190.91883,150.68925 182.43355,125.23341 182.43355,125.23341 C 182.43355,125.23341 175.36248,111.09127 175.36248,118.86944 C 175.36248,126.64762 141.42136,43.916126 141.42136,43.916126 L 160.51324,49.57298 L 181.72644,103.3131 C 181.72644,103.3131 190.91883,98.363348 192.33304,116.74812 C 193.74726,135.1329 226.27417,190.28723 226.27417,202.30805 C 226.27417,214.32886 249.60869,260.2908 251.73001,260.2908 C 253.85133,260.2908 244.65895,309.08117 244.65895,309.08117 L 234.05234,310.49538 z"
         id="path15042"
         transform="matrix(0.9900711,0,0,1.0017508,3.758373,7.8424885)" />
      <path
         style="opacity:0.30612242000000001;fill:#ffffff;fill-opacity:1;fill-rule:evenodd;stroke:none;stroke-width:1px;stroke-linecap:butt;stroke-linejoin:miter;stroke-opacity:1;filter:url(#filter16109)"
         d="M 308.84675,338.4261 C 308.84675,338.4261 310.26097,308.72762 313.0894,295.29259 C 315.91782,281.85756 293.29041,230.23877 293.29041,230.23877 C 293.29041,230.23877 284.09802,213.97531 274.90563,196.29764 C 265.71324,178.61997 257.22796,153.16413 257.22796,153.16413 C 257.22796,153.16413 250.15689,139.02199 250.15689,146.80016 C 250.15689,154.57834 216.21577,71.846846 216.21577,71.846846 L 235.30765,77.5037 L 256.52085,131.24382 C 256.52085,131.24382 265.71324,126.29407 267.12745,144.67884 C 268.54167,163.06362 301.06858,218.21795 301.06858,230.23877 C 301.06858,242.25958 324.4031,288.22152 326.52442,288.22152 C 328.64574,288.22152 319.45336,337.01189 319.45336,337.01189 L 308.84675,338.4261 z"
         id="path16113"
         transform="matrix(0.9900711,0,0,1.0017508,3.758373,7.8424885)" />
      <path
         style="opacity:0.31122448000000003;fill:#ffffff;fill-opacity:1;fill-rule:evenodd;stroke:none;stroke-width:1px;stroke-linecap:butt;stroke-linejoin:miter;stroke-opacity:1;filter:url(#filter17140)"
         d="M 266.57926,89.878067 C 266.57926,89.878067 269.40768,137.25422 286.37825,138.66843 C 303.34881,140.08265 270.8219,96.242028 270.8219,96.242028 L 266.57926,89.878067 z"
         id="path16117"
         transform="matrix(0.9900711,0,0,1.0017508,3.758373,7.8424885)" />
      <path
         style="opacity:0.33673467000000001;fill:#ffffff;fill-opacity:1;fill-rule:evenodd;stroke:none;stroke-width:1px;stroke-linecap:butt;stroke-linejoin:miter;stroke-opacity:1;filter:url(#filter18191)"
         d="M 259.50819,50.987194 C 259.50819,50.987194 289.91378,115.33391 300.52038,133.01158 C 311.12698,150.68925 356.38182,282.21111 357.79603,303.42431 C 359.21024,324.63752 358.50314,323.93041 358.50314,323.93041 C 358.50314,323.93041 369.10974,292.81771 366.98842,286.45375 C 364.8671,280.08979 340.82547,221.39993 340.82547,221.39993 C 340.82547,221.39993 333.04729,157.76032 316.78384,135.1329 C 300.52038,112.50548 297.69195,109.67706 291.32799,106.14152 C 284.96403,102.60599 270.11479,57.351155 270.11479,52.401408 C 270.11479,47.45166 259.50819,50.987194 259.50819,50.987194 z"
         id="path17144"
         transform="matrix(0.9900711,0,0,1.0017508,3.758373,7.8424885)" />
      <path
         style="opacity:0.32653061000000000;fill:#ffffff;fill-opacity:1;fill-rule:evenodd;stroke:none;stroke-width:1px;stroke-linecap:butt;stroke-linejoin:miter;stroke-opacity:1;filter:url(#filter19220)"
         d="M 292.74221,60.886689 C 292.74221,60.886689 307.59145,114.6268 323.85491,117.45523 C 340.11836,120.28366 354.9676,193.11566 354.9676,193.11566 L 355.67471,164.12428 C 355.67471,164.12428 377.59502,200.18672 377.59502,206.55069 C 377.59502,212.91465 405.87929,293.52482 399.51533,311.20249 C 393.15137,328.88016 406.5864,248.26999 387.49452,211.50043 C 368.40263,174.73088 352.13918,148.56793 352.13918,148.56793 L 339.41125,122.40498 L 321.02648,113.21259 L 300.52038,61.593796 L 292.74221,60.886689 z"
         id="path18197"
         transform="matrix(0.9900711,0,0,1.0017508,3.758373,7.8424885)" />
      <path
         style="opacity:0.30962342999999998;fill:#ffffff;fill-opacity:1;fill-rule:evenodd;stroke:none;stroke-width:1px;stroke-linecap:butt;stroke-linejoin:miter;stroke-opacity:1;filter:url(#filter3287)"
         d="M 374.05949,77.857252 C 374.05949,77.857252 377.59502,162.00296 383.25188,170.48824 C 388.90873,178.97352 451.13413,296.35325 451.13413,296.35325 L 484.36815,323.93041 L 436.28488,258.87659 L 400.22244,188.16591 L 388.20162,171.19535 C 388.20162,171.19535 381.13056,106.14152 379.71634,101.19178 C 378.30213,96.242028 374.05949,74.321718 374.05949,74.321718 L 374.05949,77.857252 z"
         id="path19226"
         transform="matrix(0.9900711,0,0,1.0017508,3.758373,7.8424885)" />
      <path
         sodipodi:nodetypes="ccsccc"
         id="path2422"
         d="M 351.27645,310.59353 C 347.35896,310.64503 342.85918,311.62827 340.14284,312.86617 C 340.14284,312.86617 348.91359,331.63513 351.71395,334.46853 C 353.26963,336.04255 356.54655,338.47362 360.83895,339.12478 C 360.70837,335.91424 360.85286,332.10342 361.40145,327.56228 C 363.71754,313.98617 357.8056,310.5077 351.27645,310.59353 z"
         style="fill:#000000;fill-opacity:0.42288557;fill-rule:evenodd;stroke:none;stroke-width:1px;stroke-linecap:butt;stroke-linejoin:miter;stroke-opacity:1" />
    </g>
  </g>
</svg>
